<svg id="texts" xmlns="http://www.w3.org/2000/svg" viewBox="0 0 19.62 69.34"><defs><style>.cls-1{fill:#2c3e50;}.cls-2{fill:#959999;}.cls-3{fill:#61bfff;}.cls-4{fill:#3498db;}.cls-5{fill:#e74c3c;}</style></defs><title>person-icon-m</title><g id="_Group_" data-name="&lt;Group&gt;"><path class="cls-1" d="M1459,296.23c0.11,4.75,0,7.86,0,7.86h-2.79s-0.24-8.42-.6-14.19c0.45-4.46,1.05-9.16,1.08-9.33,0,0,1.48.58,1.79,3.42S1458.87,291.49,1459,296.23Z" transform="translate(-1439.4 -265.95)"/><path class="cls-2" d="M1458.6,305.22h-1.79a2.77,2.77,0,0,0,.08-0.86v-0.27h1.91v1.13h-0.19Z" transform="translate(-1439.4 -265.95)"/><path class="cls-2" d="M1458.6,305.22c0,0.62,0,1.37,0,1.82a2.05,2.05,0,0,1-1,1.95c-0.9.77-1,.73-1.39,0.66s0.87-.87,1-1.22a1,1,0,0,0-.24-1c-0.24-.42-0.42.14-0.38,0.56s-0.35.59-.45,0a4.06,4.06,0,0,1,.49-2.29,2.37,2.37,0,0,0,.17-0.46h1.79Z" transform="translate(-1439.4 -265.95)"/><path class="cls-2" d="M1456.88,304.36a2.77,2.77,0,0,1-.08.86h-0.42v-1.13h0.5v0.27Z" transform="translate(-1439.4 -265.95)"/><path class="cls-1" d="M1456.65,280.57h0c0,0.16-.63,4.87-1.08,9.33-0.12-2-.26-3.61-0.4-4.53C1454.75,282.67,1453.55,280.39,1456.65,280.57Z" transform="translate(-1439.4 -265.95)"/><path class="cls-1" d="M1448,285.65l1.16,3.87h0l1.15-3.86,1.85-6.2,0.35-1.17a20.8,20.8,0,0,1,4.08,2.29c-3.1-.18-1.9,2.1-1.48,4.8,0.14,0.92.28,2.57,0.4,4.53a61.42,61.42,0,0,0-.45,7.28c0.21,3.16.42,6.12,0.37,7.65h-0.43l-0.18-.64h-5.52v0.64h-0.31v-0.64h-5.52l-0.18.64h-0.43c-0.05-1.53.16-4.48,0.37-7.65a61.42,61.42,0,0,0-.45-7.28c0.12-2,.26-3.61.4-4.53,0.43-2.7,1.63-5-1.48-4.8a20.8,20.8,0,0,1,4.08-2.29l0.35,1.17Z" transform="translate(-1439.4 -265.95)"/><path class="cls-2" d="M1455.06,304.83l0,0.17-1.79,28.64a3.68,3.68,0,0,0-3,.05l-0.18.14-0.5-25.89-0.29-.15v-3h5.69Z" transform="translate(-1439.4 -265.95)"/><polygon class="cls-1" points="15.48 38.24 15.66 38.88 9.96 38.88 9.96 38.24 15.48 38.24"/><path class="cls-1" d="M1453.76,334a1.2,1.2,0,0,1,.14,1.31h-4a1.46,1.46,0,0,1,.3-1.46v0.6h3.09l0.05-.79A1.11,1.11,0,0,1,1453.76,334Z" transform="translate(-1439.4 -265.95)"/><path class="cls-1" d="M1453.32,333.64l-0.05.79h-3.09v-0.6l0.18-.14A3.68,3.68,0,0,1,1453.32,333.64Z" transform="translate(-1439.4 -265.95)"/><path class="cls-2" d="M1453.21,268.63a8.25,8.25,0,0,1-.23,4.59h0a2.14,2.14,0,0,0,0-.64c-0.09-.4-0.23-0.45-0.32-0.43a5,5,0,0,0,0-1.19c0-.08,0-0.15,0-0.22a3.49,3.49,0,0,0,0-1c0-2-.68-2.29-1.7-2.38a1.63,1.63,0,0,1-1.72,1.53h0v-0.13h0v-2.84S1452.68,265.88,1453.21,268.63Z" transform="translate(-1439.4 -265.95)"/><path class="cls-2" d="M1452.94,272.58a2.14,2.14,0,0,1,0,.64,1.23,1.23,0,0,1-.53,1c0.09-.67.15-1.45,0.18-2.08C1452.71,272.13,1452.85,272.17,1452.94,272.58Z" transform="translate(-1439.4 -265.95)"/><path class="cls-2" d="M1452.64,269.78a3.49,3.49,0,0,1,0,1c0-1.82-.71-2.08-1.7-2.16a1.63,1.63,0,0,1-1.72,1.53h0a1.63,1.63,0,0,1-1.72-1.53c-1,.09-1.65.35-1.7,2.16a3.49,3.49,0,0,1,0-1c0-2,.68-2.29,1.7-2.38a1.63,1.63,0,0,0,1.72,1.53h0a1.63,1.63,0,0,0,1.72-1.53C1452,267.48,1452.64,267.76,1452.64,269.78Z" transform="translate(-1439.4 -265.95)"/><path class="cls-2" d="M1452.64,271a5,5,0,0,1,0,1.19,0.19,0.19,0,0,0-.09,0c0-.51.08-1,0.1-1.45C1452.64,270.81,1452.64,270.88,1452.64,271Z" transform="translate(-1439.4 -265.95)"/><path class="cls-3" d="M1452.57,278.29l-0.35,1.17-1.66,1.11-0.28-1.11-1-.51,0.21-.11a2.21,2.21,0,0,0,1.19-.64l1.21-.65V278Z" transform="translate(-1439.4 -265.95)"/><path class="cls-2" d="M1452.64,270.74c0,0.42-.06.93-0.1,1.45,0,0.36-.08.72-0.13,1a8,8,0,0,1-.24,1.06,8.2,8.2,0,0,1-.29.84c-0.53,1.3-1.41,2.55-2.66,2.55h0c-1.25,0-2.14-1.25-2.66-2.55a8.2,8.2,0,0,1-.29-0.84,8,8,0,0,1-.24-1.06c-0.05-.33-0.09-0.68-0.13-1,0-.51-0.08-1-0.1-1.45,0-1.82.71-2.08,1.7-2.16a1.63,1.63,0,0,0,1.72,1.53h0a1.63,1.63,0,0,0,1.72-1.53C1451.93,268.66,1452.59,268.92,1452.64,270.74Z" transform="translate(-1439.4 -265.95)"/><path class="cls-2" d="M1452.53,272.19a0.19,0.19,0,0,1,.09,0c0,0.63-.09,1.4-0.18,2.08a0.62,0.62,0,0,1-.27.07,8,8,0,0,0,.24-1.06C1452.46,272.91,1452.5,272.55,1452.53,272.19Z" transform="translate(-1439.4 -265.95)"/><polygon class="cls-4" points="12.82 13.51 10.97 19.71 10.33 15.38 11.16 14.62 12.82 13.51"/><path class="cls-2" d="M1451.91,276.24v1.31l-1.21.65A5.64,5.64,0,0,0,1451.91,276.24Z" transform="translate(-1439.4 -265.95)"/><path class="cls-2" d="M1448.91,278.84l-1.19-.64a5.64,5.64,0,0,1-1.21-2v-1.1h0c0.53,1.3,1.41,2.55,2.66,2.55h0c1.25,0,2.14-1.25,2.66-2.55h0v1.1a5.64,5.64,0,0,1-1.21,2l-1.19.64-0.21.11-0.08,0h0l-0.08,0Z" transform="translate(-1439.4 -265.95)"/><path class="cls-3" d="M1449.51,278.84l1.19-.64A2.21,2.21,0,0,1,1449.51,278.84Z" transform="translate(-1439.4 -265.95)"/><polygon class="cls-5" points="10.88 13.51 11.16 14.62 10.33 15.38 10.97 19.71 9.81 23.57 9.8 23.57 8.64 19.7 9.29 15.38 8.46 14.62 8.74 13.51 9.72 13 9.8 13.05 9.81 13.05 9.9 13 10.88 13.51"/><polygon class="cls-2" points="9.96 38.88 9.96 41.85 9.65 41.85 9.65 38.88 9.8 38.88 9.81 38.88 9.96 38.88"/><path class="cls-2" d="M1449.21,265.95v3a1.63,1.63,0,0,1-1.72-1.53c-1,.09-1.7.37-1.7,2.38a3.49,3.49,0,0,0,0,1c0,0.07,0,.14,0,0.22a5,5,0,0,0,0,1.19c-0.09,0-.23,0-0.32.43a2.14,2.14,0,0,0,0,.64h0a8.25,8.25,0,0,1-.23-4.59C1445.75,265.88,1449.21,265.95,1449.21,265.95Z" transform="translate(-1439.4 -265.95)"/><path class="cls-3" d="M1449.12,278.95l-1,.51-0.28,1.11-1.66-1.11-0.35-1.17,0.67-.29v-0.44l1.21,0.65a2.21,2.21,0,0,0,1.19.64Z" transform="translate(-1439.4 -265.95)"/><path class="cls-2" d="M1449.06,304.83v3l-0.29.15-0.5,25.89-0.18-.14a3.68,3.68,0,0,0-3-.05L1443.32,305l0-.17h5.69Z" transform="translate(-1439.4 -265.95)"/><polygon class="cls-1" points="9.65 38.24 9.65 38.88 3.96 38.88 4.13 38.24 9.65 38.24"/><path class="cls-3" d="M1447.72,278.2l1.19,0.64A2.21,2.21,0,0,1,1447.72,278.2Z" transform="translate(-1439.4 -265.95)"/><polygon class="cls-4" points="9.29 15.38 8.64 19.7 6.8 13.51 8.46 14.62 9.29 15.38"/><path class="cls-1" d="M1448.26,333.83a1.46,1.46,0,0,1,.3,1.46h-4a1.2,1.2,0,0,1,.14-1.31,1.11,1.11,0,0,1,.44-0.34l0.05,0.79h3.09v-0.6Z" transform="translate(-1439.4 -265.95)"/><path class="cls-1" d="M1448.26,333.83v0.6h-3.09l-0.05-.79a3.68,3.68,0,0,1,3,.05Z" transform="translate(-1439.4 -265.95)"/><path class="cls-2" d="M1447.72,278.2l-1.21-.65v-1.31A5.64,5.64,0,0,0,1447.72,278.2Z" transform="translate(-1439.4 -265.95)"/><path class="cls-2" d="M1446.25,274.29a0.62,0.62,0,0,1-.27-0.07c-0.09-.67-0.15-1.45-0.18-2.08a0.19,0.19,0,0,1,.09,0c0,0.36.08,0.72,0.13,1A8,8,0,0,0,1446.25,274.29Z" transform="translate(-1439.4 -265.95)"/><path class="cls-2" d="M1445.89,272.19a0.19,0.19,0,0,0-.09,0,5,5,0,0,1,0-1.19c0-.08,0-0.15,0-0.22C1445.81,271.16,1445.84,271.67,1445.89,272.19Z" transform="translate(-1439.4 -265.95)"/><path class="cls-2" d="M1445.8,272.15c0,0.63.09,1.4,0.18,2.08a1.23,1.23,0,0,1-.53-1,2.14,2.14,0,0,1,0-.64C1445.58,272.17,1445.72,272.13,1445.8,272.15Z" transform="translate(-1439.4 -265.95)"/><path class="cls-1" d="M1441.77,280.57c3.1-.18,1.9,2.1,1.48,4.8-0.14.92-.28,2.57-0.4,4.53C1442.39,285.37,1441.77,280.57,1441.77,280.57Z" transform="translate(-1439.4 -265.95)"/><path class="cls-1" d="M1442.85,289.9c-0.36,5.77-.6,14.19-0.6,14.19h-2.79s-0.11-3.11,0-7.86,0.21-9.39.53-12.23,1.79-3.43,1.79-3.43S1442.39,285.37,1442.85,289.9Z" transform="translate(-1439.4 -265.95)"/><path class="cls-2" d="M1441.78,305.68a4.06,4.06,0,0,1,.49,2.29c-0.11.63-.49,0.45-0.45,0s-0.14-1-.38-0.56a1,1,0,0,0-.24,1c0.14,0.35,1.39,1.15,1,1.22s-0.49.11-1.39-.66a2.05,2.05,0,0,1-1-1.95c0-.45,0-1.2,0-1.82h1.79A2.37,2.37,0,0,0,1441.78,305.68Z" transform="translate(-1439.4 -265.95)"/><path class="cls-2" d="M1442,304.09v1.13h-0.42a2.77,2.77,0,0,1-.08-0.86v-0.27h0.5Z" transform="translate(-1439.4 -265.95)"/><path class="cls-2" d="M1439.82,305.22h-0.19v-1.13h1.91v0.27a2.77,2.77,0,0,0,.08.86h-1.79Z" transform="translate(-1439.4 -265.95)"/></g></svg>