<svg xmlns="http://www.w3.org/2000/svg" xmlns:xlink="http://www.w3.org/1999/xlink" viewBox="0 0 49.52 203.44"><defs><style>.cls-1{isolation:isolate;}.cls-2{fill:#ecf0f1;}.cls-3{fill:#959999;}.cls-4{fill:#e74c3c;}.cls-5{fill:#3498db;}.cls-6{fill:#802a21;}.cls-7{fill:#c7c9cc;}.cls-8{opacity:0.35;mix-blend-mode:overlay;}.cls-9{fill:url(#linear-gradient);}</style><linearGradient id="linear-gradient" x1="1818.78" y1="624.26" x2="1769.26" y2="624.26" gradientTransform="matrix(-1, 0, 0, 1, 2803.77, 176.72)" gradientUnits="userSpaceOnUse"><stop offset="0.5" stop-color="#fff"/><stop offset="0.51" stop-opacity="0"/></linearGradient></defs><title>person-icon-f</title><g class="cls-1"><g id="graphics"><g id="_Group_" data-name="&lt;Group&gt;"><path class="cls-2" d="M991,742.16c0-.19,0-0.29,0-0.29l-0.14,0C990.9,742,991,742.07,991,742.16Z" transform="translate(-983.28 -694.55)"/><path class="cls-2" d="M992.3,786.75c-0.07.41-.16,0.84-0.24,1.27,0.08-.33.17-0.66,0.23-1C992.29,787,992.3,786.85,992.3,786.75Z" transform="translate(-983.28 -694.55)"/><path class="cls-2" d="M992.3,786.75c0,0.1,0,.2,0,0.29,0.35-1.48.64-2.86,0.87-4.12C992.86,784.14,992.57,785.42,992.3,786.75Z" transform="translate(-983.28 -694.55)"/><path class="cls-2" d="M991.55,808.62c0.38,0.77,1.21,2.56,1.65,1.31-2.93-7-2.44-14.92-1.16-21.85-1,4.31-2.46,9.33-3.87,14.22-0.14,2.84-.74,3.92-0.86,5.75-0.2,2.83.46,4.9,3.09,6.6s0.95-.37.58-2.35S991.08,807.68,991.55,808.62Z" transform="translate(-983.28 -694.55)"/><path class="cls-2" d="M992,788.07c-1.28,6.93-1.77,14.9,1.16,21.85a5.55,5.55,0,0,0,.23-1.31c0.29-3.39-1.4-5.57-1.77-7.55s0.39-8.77.6-13.49c0-.17,0-0.34,0-0.54-0.07.31-.15,0.64-0.23,1A0.12,0.12,0,0,1,992,788.07Z" transform="translate(-983.28 -694.55)"/><path class="cls-2" d="M988.18,802.3c1.41-4.9,2.84-9.91,3.87-14.22a0.12,0.12,0,0,0,0-.06c0.08-.43.17-0.86,0.24-1.27,0.19-6,.46-25.23,1.32-28.8h0c-1.82-5.43-2.49-14.06-2.61-15.77h0c-0.06-.09-0.11-0.18-0.16-0.27-2.26.4-3.51,3.5-3.94,9.35s0,35.84,1,44.38A39.38,39.38,0,0,1,988.18,802.3Z" transform="translate(-983.28 -694.55)"/><path class="cls-3" d="M995.39,747.51a39,39,0,0,1-4.38-5.35c0.12,1.71.79,10.34,2.61,15.77A52.9,52.9,0,0,0,995.39,747.51Z" transform="translate(-983.28 -694.55)"/><path class="cls-3" d="M1000.58,825.68a10.55,10.55,0,0,0-.31-3,50,50,0,0,1-1.08-8.47h-3.65c-0.22-.31-0.43-0.63-0.63-1-0.18,3.77-.42,9.5-0.61,14.72C997.34,828.62,1000.33,829,1000.58,825.68Z" transform="translate(-983.28 -694.55)"/><path class="cls-3" d="M991,812.3c0.37,2,2.06,4.06-.58,2.35s-3.29-3.78-3.09-6.6c0.12-1.82.73-2.91,0.86-5.75-1.74,6.09-3.46,12-4.39,16.11-2.1,9.3,2.74,8.45,7.08,8.92,1,0.11,2.25.4,3.43,0.65,0.19-5.22.43-11,.61-14.72h0a22.19,22.19,0,0,1-1.7-3.32c-0.45,1.25-1.27-.54-1.65-1.31C991.08,807.68,990.61,810.32,991,812.3Z" transform="translate(-983.28 -694.55)"/><path class="cls-4" d="M991,741.86s0,0.1,0,.29h0a39,39,0,0,0,4.38,5.35C995.45,744,994.44,741.43,991,741.86Z" transform="translate(-983.28 -694.55)"/><path class="cls-4" d="M990.19,738.33c-0.56.86-.18,2.14,0.66,3.56l0.14,0c1-.65,3.11-1.77,5.46-3.09,0-1.93.17-3.93,0.17-3.93C995,735.27,991.46,736.4,990.19,738.33Z" transform="translate(-983.28 -694.55)"/><path class="cls-4" d="M998.23,737.75c0-.65,0-1.58,0-2.91v0c-0.47-.08-0.75-0.16-0.75-0.16s-0.31.06-.82,0.2c0,0-.14,2-0.17,3.93Z" transform="translate(-983.28 -694.55)"/><path class="cls-5" d="M1000,736.7c-0.58.36-1.18,0.72-1.77,1.05a7.9,7.9,0,0,1,0,1.48A12.52,12.52,0,0,0,1000,736.7Z" transform="translate(-983.28 -694.55)"/><path class="cls-2" d="M1003.25,825.94l-2.67-.26c-0.25,3.34-3.24,2.94-6.28,2.3-0.14,3.9-.24,7.51-0.25,9.8,0,7.43-2.8,13.23-1.84,24.86,0.64,7.7,1.06,14.42,1.12,19.16,0,0,1.32.64,4.65-.17,0.73-5.15,2-11.64,2.76-19.59,1.27-13.6,1.46-15.58,1.73-24.74C1002.57,834.26,1002.87,830.11,1003.25,825.94Z" transform="translate(-983.28 -694.55)"/><path class="cls-2" d="M998,881.63c-3.34.81-4.65,0.17-4.65,0.17a40.7,40.7,0,0,1-.21,5.6c-0.37,2.69-.77,6.91-0.77,6.91s0.26,0.91,2.63.92c3.08,0,3.28-1.47,3.28-1.47-0.17-.81-0.37-1.7-0.64-3.13A30.1,30.1,0,0,1,998,881.63Z" transform="translate(-983.28 -694.55)"/><path class="cls-3" d="M998.44,894.58c-0.05-.28-0.11-0.54-0.17-0.82,0,0-.21,1.48-3.28,1.47-2.38,0-2.63-.92-2.63-0.92-1.89,2.45-.73,3.47.11,3.54a26.64,26.64,0,0,0,5.26-.06C998.84,897.64,998.79,896.41,998.44,894.58Z" transform="translate(-983.28 -694.55)"/><path class="cls-3" d="M999.11,809.09h-4s-0.08,1.64-.2,4.17h0c0.2,0.32.41,0.64,0.63,1h3.65C999.1,812.42,999.1,810.71,999.11,809.09Z" transform="translate(-983.28 -694.55)"/><path class="cls-5" d="M998.23,737.75c0.59-.34,1.19-0.7,1.77-1.05a11.55,11.55,0,0,0,.72-1.59,20.09,20.09,0,0,1-2.53-.31v0C998.22,736.18,998.23,737.1,998.23,737.75Z" transform="translate(-983.28 -694.55)"/><path class="cls-5" d="M1000.13,715.49c0,0.43,0,.88,0,1.35l0,0h0C1000.15,716.41,1000.14,715.95,1000.13,715.49Z" transform="translate(-983.28 -694.55)"/><path class="cls-5" d="M1005.36,710.74h-4.94s-0.22,1.92-.29,4.67v0.09c0,0.45,0,.91,0,1.37A16.92,16.92,0,0,1,1005.36,710.74Z" transform="translate(-983.28 -694.55)"/><path class="cls-2" d="M998.24,719c0.08,1.9,1,3.6,2.22,4a51.63,51.63,0,0,1-.34-6.15c-0.27-.15-1.69-0.82-1.86,1.34A7.61,7.61,0,0,0,998.24,719Z" transform="translate(-983.28 -694.55)"/><path class="cls-6" d="M1002.5,735.1a16.42,16.42,0,0,1-1.78,0,11.55,11.55,0,0,1-.72,1.59C1000.87,736.18,1001.72,735.64,1002.5,735.1Z" transform="translate(-983.28 -694.55)"/><path class="cls-2" d="M1000.83,723.08a42.11,42.11,0,0,1-.67-6.2l0,0a51.63,51.63,0,0,0,.34,6.15A2.38,2.38,0,0,0,1000.83,723.08Z" transform="translate(-983.28 -694.55)"/><path class="cls-5" d="M1008.36,699.54s-1.49-6.93-8.62-4.45-10.64,10.53-8.68,19.08,4,10,3.34,14.64,3.67,1.77,3.79,6a20.09,20.09,0,0,0,2.53.31,6.83,6.83,0,0,0,.09-4.56c-1.07-3-.43-4.35.08-4.93-0.18-.86-0.32-1.73-0.44-2.63-1.26-.41-2.14-2.12-2.22-4h0C992.56,704,1002.29,699.53,1008.36,699.54Z" transform="translate(-983.28 -694.55)"/><path class="cls-5" d="M1000.83,723.08a2.38,2.38,0,0,1-.37-0.08c0.12,0.89.25,1.77,0.44,2.63a1.48,1.48,0,0,1,.47-0.37C1001.16,724.55,1001,723.82,1000.83,723.08Z" transform="translate(-983.28 -694.55)"/><path class="cls-3" d="M991.67,801.07c0.36,2,2.06,4.16,1.77,7.55a5.55,5.55,0,0,1-.23,1.31,22.19,22.19,0,0,0,1.7,3.32c0.12-2.53.2-4.17,0.2-4.17h4c0-3,.11-5.73-0.08-8-0.45-5.3,4.09-33.3,4.38-37.8s-3.78-11.06-6-13.6c-0.5-.56-1.22-1.32-2-2.18a52.9,52.9,0,0,1-1.77,10.42h0c2,6,2.52,8.13,2,14.35-0.16,2.1-1.36,5.93-2.5,10.63-0.22,1.25-.51,2.63-0.87,4.12,0,0.2,0,.38,0,0.54C992.06,792.3,991.3,799.09,991.67,801.07Z" transform="translate(-983.28 -694.55)"/><path class="cls-4" d="M997.4,749.69c2.24,2.55,6.32,9.11,6,13.6,0,0,2.57-10.56.72-13-0.17-.22-0.37-0.45-0.58-0.7l0,0c-2.2-2.5-6.61-6.24-6.93-7.75a16.51,16.51,0,0,1-.15-3.06c-2.35,1.32-4.46,2.44-5.46,3.09,3.45-.43,4.46,2.1,4.4,5.65C996.18,748.37,996.9,749.13,997.4,749.69Z" transform="translate(-983.28 -694.55)"/><path class="cls-2" d="M1003.25,825.94c0.38-4.25.82-8.53,1.17-11.71h-5.23a50,50,0,0,0,1.08,8.47,10.55,10.55,0,0,1,.31,3Z" transform="translate(-983.28 -694.55)"/><path class="cls-5" d="M999.19,814.22h5.23c0.34-3.08.58-5.13,0.58-5.13l-5.9,0C999.1,810.71,999.1,812.42,999.19,814.22Z" transform="translate(-983.28 -694.55)"/><path class="cls-5" d="M1004.13,750.3c1.85,2.44-.72,13-0.72,13-0.3,4.49-4.83,32.5-4.38,37.8,0.19,2.27.1,5,.08,8l5.9,0s-0.24,2.05-.58,5.13h3.64l0.17-63.4a9.31,9.31,0,0,1-4.68-1.25C1003.76,749.85,1004,750.08,1004.13,750.3Z" transform="translate(-983.28 -694.55)"/><path class="cls-2" d="M1008.27,734.24a6,6,0,0,1-5.1-2.79v3.19l-0.66.46c-0.78.53-1.63,1.07-2.5,1.6a12.52,12.52,0,0,1-1.81,2.54,7.9,7.9,0,0,0,0-1.48l-1.78,1a16.51,16.51,0,0,0,.15,3.06c0.33,1.5,4.74,5.25,6.93,7.75l0,0a9.31,9.31,0,0,0,4.68,1.25Z" transform="translate(-983.28 -694.55)"/><path class="cls-7" d="M1003.18,731.46a6,6,0,0,0,5.1,2.79V732a6,6,0,0,1-5.1-2.79v2.21h0Z" transform="translate(-983.28 -694.55)"/><path class="cls-2" d="M1003.18,729.24a6,6,0,0,0,5.1,2.79l0-6.75h-5.1v4h0Z" transform="translate(-983.28 -694.55)"/><path class="cls-2" d="M1001.37,725.25a13.13,13.13,0,0,0,1.81,4v-4h5.1l0-14.52h-3a16.92,16.92,0,0,0-5.19,6.12h0a42.11,42.11,0,0,0,.67,6.2C1001,723.82,1001.16,724.55,1001.37,725.25Z" transform="translate(-983.28 -694.55)"/><path class="cls-2" d="M1008.34,708.9a20.54,20.54,0,0,0-3,1.84h3V708.9Z" transform="translate(-983.28 -694.55)"/><path class="cls-5" d="M1000.42,710.73h4.94a20.54,20.54,0,0,1,3-1.84v-0.37l-7.91,0a62.13,62.13,0,0,0-.29,6.89C1000.2,712.66,1000.42,710.73,1000.42,710.73Z" transform="translate(-983.28 -694.55)"/><path class="cls-5" d="M1008.34,708.53v0.37l0.77-.37h-0.76Z" transform="translate(-983.28 -694.55)"/><path class="cls-7" d="M1008.28,732v2.22a6,6,0,0,0,5.11-2.76v-2.22A6,6,0,0,1,1008.28,732Z" transform="translate(-983.28 -694.55)"/><path class="cls-2" d="M1010.23,890.66c-0.36,1.92-.61,2.87-0.82,3.95a9.85,9.85,0,0,0,3.88.67c2.48,0,2.2-.91,2.2-0.91s-0.39-4.22-.74-6.91a19.27,19.27,0,0,1,.73-5.77c-0.08.06-1.14,0.77-4.33,0A65.78,65.78,0,0,1,1010.23,890.66Z" transform="translate(-983.28 -694.55)"/><path class="cls-2" d="M1011.19,707.75a15.78,15.78,0,0,0-2.08.79h2.16A4.55,4.55,0,0,1,1011.19,707.75Z" transform="translate(-983.28 -694.55)"/><path class="cls-2" d="M1009.11,708.53l-0.77.37v1.85h3.61a10.17,10.17,0,0,1-.69-2.22h-2.16Z" transform="translate(-983.28 -694.55)"/><path class="cls-5" d="M1017,809.13c0-3-.08-5.73.12-8,0.47-5.3-3.91-33.32-4.19-37.82,0,0-2.51-10.57-.64-13,0.17-.22.37-0.45,0.58-0.7a9.35,9.35,0,0,1-4.68,1.22l-0.17,63.4h2.56c0-3.08.07-5.13,0.07-5.13Z" transform="translate(-983.28 -694.55)"/><path class="cls-2" d="M1013.38,734.67v-3.19a6,6,0,0,1-5.11,2.76l0,16.6a9.35,9.35,0,0,0,4.68-1.22l0,0c2.21-2.49,6.63-6.21,7-7.71a16.51,16.51,0,0,0,.16-3.06A78,78,0,0,1,1013.38,734.67Z" transform="translate(-983.28 -694.55)"/><path class="cls-2" d="M1008.3,725.27l0,6.75a6,6,0,0,0,5.11-2.76v-4h-5.1Z" transform="translate(-983.28 -694.55)"/><path class="cls-3" d="M1010.1,897.82a26.73,26.73,0,0,0,5.27.09c0.83-.06,2-1.08.12-3.54,0,0,.27.91-2.2,0.91a9.85,9.85,0,0,1-3.88-.67C1009,896.44,1009,897.66,1010.1,897.82Z" transform="translate(-983.28 -694.55)"/><path class="cls-2" d="M1015.77,723.12a42.11,42.11,0,0,0,.7-6.2,18.48,18.48,0,0,1-4.53-6.16h-3.61l0,14.52h5.1v4A16.27,16.27,0,0,0,1015.77,723.12Z" transform="translate(-983.28 -694.55)"/><path class="cls-2" d="M1016.93,814.27l-6.31,0c-0.07,6.3-.15,16.92,0,23.08,0.22,9.16-1.27,11.13-.06,24.74a151.53,151.53,0,0,1,.6,19.6c3.19,0.79,4.25.08,4.33,0h0c1.06-4.73,2.91-11.37,3.58-19,1-11.62-.06-17.44,0-24.86,0-2.21.14-5.66,0.34-9.4-2.72.23-4.72-.62-3.56-5.71A50.16,50.16,0,0,0,1016.93,814.27Z" transform="translate(-983.28 -694.55)"/><path class="cls-5" d="M1016.25,710.77s0.21,1.93.26,4.67a62.13,62.13,0,0,0-.26-6.89h-5a10.17,10.17,0,0,0,.69,2.22h4.3Z" transform="translate(-983.28 -694.55)"/><path class="cls-5" d="M1011.95,710.76a18.48,18.48,0,0,0,4.53,6.16c0-.47,0-0.93,0-1.38v-0.09c-0.06-2.75-.26-4.67-0.26-4.67h-4.3Z" transform="translate(-983.28 -694.55)"/><path class="cls-2" d="M1016.14,723a51.63,51.63,0,0,0,.38-6.14l0,0a42.11,42.11,0,0,1-.7,6.2A2.38,2.38,0,0,0,1016.14,723Z" transform="translate(-983.28 -694.55)"/><path class="cls-5" d="M1016.51,715.54c0,0.45,0,.91,0,1.38l0,0C1016.52,716.42,1016.51,716,1016.51,715.54Z" transform="translate(-983.28 -694.55)"/><path class="cls-5" d="M1010.62,814.25l6.31,0c0.09-1.79.11-3.51,0.11-5.13l-6.35,0S1010.66,811.17,1010.62,814.25Z" transform="translate(-983.28 -694.55)"/><path class="cls-2" d="M1016.52,716.89a51.63,51.63,0,0,1-.38,6.14c1.44-.46,2.38-2.59,2.22-4.79S1016.78,716.74,1016.52,716.89Z" transform="translate(-983.28 -694.55)"/><path class="cls-5" d="M1008.36,699.54c-6.07,0-15.8,4.43-10.13,19.44h0a7.61,7.61,0,0,1,0-.79c0.17-2.16,1.6-1.49,1.86-1.34,0-.47,0-0.92,0-1.35V715.4a62.13,62.13,0,0,1,.29-6.89l7.91,0h0.76a15.78,15.78,0,0,1,2.08-.79,4.55,4.55,0,0,0,.07.79h5a62.13,62.13,0,0,1,.26,6.89v0.09c0,0.43,0,.88,0,1.35,0.27-.15,1.7-0.82,1.85,1.35C1023.11,704.52,1014.43,699.56,1008.36,699.54Z" transform="translate(-983.28 -694.55)"/><path class="cls-3" d="M1015.81,822.73c-1.16,5.09.84,5.94,3.56,5.71,0.26-4.9.61-10.33,0.87-14.17h-3.3A50.16,50.16,0,0,1,1015.81,822.73Z" transform="translate(-983.28 -694.55)"/><path class="cls-6" d="M1019.92,734.9c-0.51-.14-0.82-0.2-0.82-0.2s-3.58,1.4-5.73-.44v0.41a78,78,0,0,0,6.7,4.16C1020.06,736.9,1019.92,734.9,1019.92,734.9Z" transform="translate(-983.28 -694.55)"/><path class="cls-3" d="M1017,809.13c0,1.62,0,3.34-.11,5.13h3.3c0.2-3.07.35-5.13,0.35-5.13H1017Z" transform="translate(-983.28 -694.55)"/><path class="cls-3" d="M1025.5,742.24a39.68,39.68,0,0,1-4.41,5.35A53.39,53.39,0,0,0,1022.8,758C1024.66,752.57,1025.37,743.92,1025.5,742.24Z" transform="translate(-983.28 -694.55)"/><path class="cls-3" d="M1017.16,801.14c-0.2,2.27-.12,5-0.12,8h3.55s-0.15,2.06-.35,5.13h0.34a22.52,22.52,0,0,0,2.36-4.26,5.66,5.66,0,0,1-.22-1.32c-0.28-3.39,1.42-5.56,1.81-7.54s-0.35-8.77-.53-13.49c0-.17,0-0.34,0-0.54-0.34-1.47-.63-2.85-0.84-4.09-1.12-4.72-2.31-8.57-2.46-10.67-0.44-6.22.06-8.32,2.12-14.35a53.39,53.39,0,0,1-1.71-10.42c-0.8.85-1.52,1.6-2,2.16-2.25,2.54-6.38,9.08-6.1,13.57S1017.64,795.84,1017.16,801.14Z" transform="translate(-983.28 -694.55)"/><path class="cls-2" d="M1023.14,783c0.21,1.24.5,2.62,0.84,4.09,0-.08,0-0.17,0-0.26C1023.71,785.54,1023.43,784.26,1023.14,783Z" transform="translate(-983.28 -694.55)"/><path class="cls-2" d="M1024,787.13c0.06,0.29.13,0.59,0.2,0.89-0.06-.39-0.14-0.77-0.21-1.15C1024,787,1024,787,1024,787.13Z" transform="translate(-983.28 -694.55)"/><path class="cls-2" d="M1022.94,810c3-7,2.51-15,1.26-21.92,0,0,0-.06,0-0.07-0.07-.3-0.14-0.61-0.2-0.89,0,0.2,0,.38,0,0.54,0.17,4.72.91,11.51,0.53,13.49s-2.08,4.15-1.81,7.54a5.66,5.66,0,0,0,.22,1.32h0Z" transform="translate(-983.28 -694.55)"/><path class="cls-3" d="M1020.23,814.27c-0.26,3.84-.6,9.27-0.87,14.17,1.85-.16,4.06-0.85,5.82-1,4.34-.45,9.17.43,7.13-8.88-0.9-4.11-2.59-10-4.31-16.11,0.13,2.82.72,3.9,0.83,5.72,0.19,2.83-.48,4.9-3.13,6.59s-0.94-.37-0.56-2.35-0.08-4.62-.56-3.69c-0.39.77-1.22,2.56-1.65,1.31h0a22.52,22.52,0,0,1-2.36,4.26h-0.34Z" transform="translate(-983.28 -694.55)"/><path class="cls-4" d="M1019.91,741.89c-0.34,1.5-4.77,5.22-7,7.71l0,0c-0.21.25-.42,0.48-0.58,0.7-1.87,2.43.64,13,.64,13-0.28-4.5,3.84-11,6.1-13.57,0.5-.56,1.22-1.31,2-2.16,0-3.56,1-6.09,4.43-5.64-1-.66-3.1-1.79-5.45-3.12A16.51,16.51,0,0,1,1019.91,741.89Z" transform="translate(-983.28 -694.55)"/><path class="cls-4" d="M1025.52,742c-3.44-.45-4.47,2.08-4.43,5.64a39.68,39.68,0,0,0,4.41-5.35C1025.51,742.05,1025.52,742,1025.52,742Z" transform="translate(-983.28 -694.55)"/><path class="cls-2" d="M1025.65,742l-0.14,0s0,0.1,0,.29Z" transform="translate(-983.28 -694.55)"/><path class="cls-4" d="M1025.52,742l0.14,0c0.84-1.42,1.23-2.7.67-3.55-1.26-1.94-4.79-3.09-6.4-3.53,0,0,.13,2,0.15,3.93C1022.42,740.17,1024.5,741.3,1025.52,742Z" transform="translate(-983.28 -694.55)"/><path class="cls-2" d="M1024.2,788.09c1,4.33,2.42,9.38,3.81,14.31a39.38,39.38,0,0,1,.35-6.68c1-8.53,1.59-38.39,1.18-44.37s-1.64-9-3.89-9.37l-0.16.26c-0.12,1.68-.84,10.33-2.69,15.77,0.84,3.56,1,22.91,1.17,28.86,0.07,0.38.15,0.77,0.21,1.15C1024.19,788,1024.19,788.07,1024.2,788.09Z" transform="translate(-983.28 -694.55)"/><path class="cls-2" d="M1025.16,812.39c-0.38,2-2.08,4,.56,2.35s3.32-3.76,3.13-6.59c-0.11-1.82-.7-2.9-0.83-5.72v0c-1.4-4.92-2.79-10-3.81-14.31,1.25,7,1.71,15-1.26,21.92,0.43,1.24,1.26-.54,1.65-1.31C1025.08,807.76,1025.54,810.41,1025.16,812.39Z" transform="translate(-983.28 -694.55)"/><g class="cls-8"><path class="cls-9" d="M991,742.16c0-.19,0-0.29,0-0.29l-0.14,0C990.9,742,991,742.07,991,742.16Z" transform="translate(-983.28 -694.55)"/><path class="cls-9" d="M992.3,786.75c-0.07.41-.16,0.84-0.24,1.27,0.08-.33.17-0.66,0.23-1C992.29,787,992.3,786.85,992.3,786.75Z" transform="translate(-983.28 -694.55)"/><path class="cls-9" d="M992.3,786.75c0,0.1,0,.2,0,0.29,0.35-1.48.64-2.86,0.87-4.12C992.86,784.14,992.57,785.42,992.3,786.75Z" transform="translate(-983.28 -694.55)"/><path class="cls-9" d="M991.55,808.62c0.38,0.77,1.21,2.56,1.65,1.31-2.93-7-2.44-14.92-1.16-21.85-1,4.31-2.46,9.33-3.87,14.22-0.14,2.84-.74,3.92-0.86,5.75-0.2,2.83.46,4.9,3.09,6.6s0.95-.37.58-2.35S991.08,807.68,991.55,808.62Z" transform="translate(-983.28 -694.55)"/><path class="cls-9" d="M992,788.07c-1.28,6.93-1.77,14.9,1.16,21.85a5.55,5.55,0,0,0,.23-1.31c0.29-3.39-1.4-5.57-1.77-7.55s0.39-8.77.6-13.49c0-.17,0-0.34,0-0.54-0.07.31-.15,0.64-0.23,1A0.12,0.12,0,0,1,992,788.07Z" transform="translate(-983.28 -694.55)"/><path class="cls-9" d="M988.18,802.3c1.41-4.9,2.84-9.91,3.87-14.22a0.12,0.12,0,0,0,0-.06c0.08-.43.17-0.86,0.24-1.27,0.19-6,.46-25.23,1.32-28.8h0c-1.82-5.43-2.49-14.06-2.61-15.77h0c-0.06-.09-0.11-0.18-0.16-0.27-2.26.4-3.51,3.5-3.94,9.35s0,35.84,1,44.38A39.38,39.38,0,0,1,988.18,802.3Z" transform="translate(-983.28 -694.55)"/><path class="cls-9" d="M995.39,747.51a39,39,0,0,1-4.38-5.35c0.12,1.71.79,10.34,2.61,15.77A52.9,52.9,0,0,0,995.39,747.51Z" transform="translate(-983.28 -694.55)"/><path class="cls-9" d="M1000.58,825.68a10.55,10.55,0,0,0-.31-3,50,50,0,0,1-1.08-8.47h-3.65c-0.22-.31-0.43-0.63-0.63-1-0.18,3.77-.42,9.5-0.61,14.72C997.34,828.62,1000.33,829,1000.58,825.68Z" transform="translate(-983.28 -694.55)"/><path class="cls-9" d="M991,812.3c0.37,2,2.06,4.06-.58,2.35s-3.29-3.78-3.09-6.6c0.12-1.82.73-2.91,0.86-5.75-1.74,6.09-3.46,12-4.39,16.11-2.1,9.3,2.74,8.45,7.08,8.92,1,0.11,2.25.4,3.43,0.65,0.19-5.22.43-11,.61-14.72h0a22.19,22.19,0,0,1-1.7-3.32c-0.45,1.25-1.27-.54-1.65-1.31C991.08,807.68,990.61,810.32,991,812.3Z" transform="translate(-983.28 -694.55)"/><path class="cls-9" d="M991,741.86s0,0.1,0,.29h0a39,39,0,0,0,4.38,5.35C995.45,744,994.44,741.43,991,741.86Z" transform="translate(-983.28 -694.55)"/><path class="cls-9" d="M990.19,738.33c-0.56.86-.18,2.14,0.66,3.56l0.14,0c1-.65,3.11-1.77,5.46-3.09,0-1.93.17-3.93,0.17-3.93C995,735.27,991.46,736.4,990.19,738.33Z" transform="translate(-983.28 -694.55)"/><path class="cls-9" d="M998.23,737.75c0-.65,0-1.58,0-2.91v0c-0.47-.08-0.75-0.16-0.75-0.16s-0.31.06-.82,0.2c0,0-.14,2-0.17,3.93Z" transform="translate(-983.28 -694.55)"/><path class="cls-9" d="M1000,736.7c-0.58.36-1.18,0.72-1.77,1.05a7.9,7.9,0,0,1,0,1.48A12.52,12.52,0,0,0,1000,736.7Z" transform="translate(-983.28 -694.55)"/><path class="cls-9" d="M1003.25,825.94l-2.67-.26c-0.25,3.34-3.24,2.94-6.28,2.3-0.14,3.9-.24,7.51-0.25,9.8,0,7.43-2.8,13.23-1.84,24.86,0.64,7.7,1.06,14.42,1.12,19.16,0,0,1.32.64,4.65-.17,0.73-5.15,2-11.64,2.76-19.59,1.27-13.6,1.46-15.58,1.73-24.74C1002.57,834.26,1002.87,830.11,1003.25,825.94Z" transform="translate(-983.28 -694.55)"/><path class="cls-9" d="M998,881.63c-3.34.81-4.65,0.17-4.65,0.17a40.7,40.7,0,0,1-.21,5.6c-0.37,2.69-.77,6.91-0.77,6.91s0.26,0.91,2.63.92c3.08,0,3.28-1.47,3.28-1.47-0.17-.81-0.37-1.7-0.64-3.13A30.1,30.1,0,0,1,998,881.63Z" transform="translate(-983.28 -694.55)"/><path class="cls-9" d="M998.44,894.58c-0.05-.28-0.11-0.54-0.17-0.82,0,0-.21,1.48-3.28,1.47-2.38,0-2.63-.92-2.63-0.92-1.89,2.45-.73,3.47.11,3.54a26.64,26.64,0,0,0,5.26-.06C998.84,897.64,998.79,896.41,998.44,894.58Z" transform="translate(-983.28 -694.55)"/><path class="cls-9" d="M999.11,809.09h-4s-0.08,1.64-.2,4.17h0c0.2,0.32.41,0.64,0.63,1h3.65C999.1,812.42,999.1,810.71,999.11,809.09Z" transform="translate(-983.28 -694.55)"/><path class="cls-9" d="M998.23,737.75c0.59-.34,1.19-0.7,1.77-1.05a11.55,11.55,0,0,0,.72-1.59,20.09,20.09,0,0,1-2.53-.31v0C998.22,736.18,998.23,737.1,998.23,737.75Z" transform="translate(-983.28 -694.55)"/><path class="cls-9" d="M1000.13,715.49c0,0.43,0,.88,0,1.35l0,0h0C1000.15,716.41,1000.14,715.95,1000.13,715.49Z" transform="translate(-983.28 -694.55)"/><path class="cls-9" d="M1005.36,710.74h-4.94s-0.22,1.92-.29,4.67v0.09c0,0.45,0,.91,0,1.37A16.92,16.92,0,0,1,1005.36,710.74Z" transform="translate(-983.28 -694.55)"/><path class="cls-9" d="M998.24,719c0.08,1.9,1,3.6,2.22,4a51.63,51.63,0,0,1-.34-6.15c-0.27-.15-1.69-0.82-1.86,1.34A7.61,7.61,0,0,0,998.24,719Z" transform="translate(-983.28 -694.55)"/><path class="cls-9" d="M1002.5,735.1a16.42,16.42,0,0,1-1.78,0,11.55,11.55,0,0,1-.72,1.59C1000.87,736.18,1001.72,735.64,1002.5,735.1Z" transform="translate(-983.28 -694.55)"/><path class="cls-9" d="M1000.83,723.08a42.11,42.11,0,0,1-.67-6.2l0,0a51.63,51.63,0,0,0,.34,6.15A2.38,2.38,0,0,0,1000.83,723.08Z" transform="translate(-983.28 -694.55)"/><path class="cls-9" d="M1008.36,699.54s-1.49-6.93-8.62-4.45-10.64,10.53-8.68,19.08,4,10,3.34,14.64,3.67,1.77,3.79,6a20.09,20.09,0,0,0,2.53.31,6.83,6.83,0,0,0,.09-4.56c-1.07-3-.43-4.35.08-4.93-0.18-.86-0.32-1.73-0.44-2.63-1.26-.41-2.14-2.12-2.22-4h0C992.56,704,1002.29,699.53,1008.36,699.54Z" transform="translate(-983.28 -694.55)"/><path class="cls-9" d="M1000.83,723.08a2.38,2.38,0,0,1-.37-0.08c0.12,0.89.25,1.77,0.44,2.63a1.48,1.48,0,0,1,.47-0.37C1001.16,724.55,1001,723.82,1000.83,723.08Z" transform="translate(-983.28 -694.55)"/><path class="cls-9" d="M991.67,801.07c0.36,2,2.06,4.16,1.77,7.55a5.55,5.55,0,0,1-.23,1.31,22.19,22.19,0,0,0,1.7,3.32c0.12-2.53.2-4.17,0.2-4.17h4c0-3,.11-5.73-0.08-8-0.45-5.3,4.09-33.3,4.38-37.8s-3.78-11.06-6-13.6c-0.5-.56-1.22-1.32-2-2.18a52.9,52.9,0,0,1-1.77,10.42h0c2,6,2.52,8.13,2,14.35-0.16,2.1-1.36,5.93-2.5,10.63-0.22,1.25-.51,2.63-0.87,4.12,0,0.2,0,.38,0,0.54C992.06,792.3,991.3,799.09,991.67,801.07Z" transform="translate(-983.28 -694.55)"/><path class="cls-9" d="M997.4,749.69c2.24,2.55,6.32,9.11,6,13.6,0,0,2.57-10.56.72-13-0.17-.22-0.37-0.45-0.58-0.7l0,0c-2.2-2.5-6.61-6.24-6.93-7.75a16.51,16.51,0,0,1-.15-3.06c-2.35,1.32-4.46,2.44-5.46,3.09,3.45-.43,4.46,2.1,4.4,5.65C996.18,748.37,996.9,749.13,997.4,749.69Z" transform="translate(-983.28 -694.55)"/><path class="cls-9" d="M1003.25,825.94c0.38-4.25.82-8.53,1.17-11.71h-5.23a50,50,0,0,0,1.08,8.47,10.55,10.55,0,0,1,.31,3Z" transform="translate(-983.28 -694.55)"/><path class="cls-9" d="M999.19,814.22h5.23c0.34-3.08.58-5.13,0.58-5.13l-5.9,0C999.1,810.71,999.1,812.42,999.19,814.22Z" transform="translate(-983.28 -694.55)"/><path class="cls-9" d="M1004.13,750.3c1.85,2.44-.72,13-0.72,13-0.3,4.49-4.83,32.5-4.38,37.8,0.19,2.27.1,5,.08,8l5.9,0s-0.24,2.05-.58,5.13h3.64l0.17-63.4a9.31,9.31,0,0,1-4.68-1.25C1003.76,749.85,1004,750.08,1004.13,750.3Z" transform="translate(-983.28 -694.55)"/><path class="cls-9" d="M1008.27,734.24a6,6,0,0,1-5.1-2.79v3.19l-0.66.46c-0.78.53-1.63,1.07-2.5,1.6a12.52,12.52,0,0,1-1.81,2.54,7.9,7.9,0,0,0,0-1.48l-1.78,1a16.51,16.51,0,0,0,.15,3.06c0.33,1.5,4.74,5.25,6.93,7.75l0,0a9.31,9.31,0,0,0,4.68,1.25Z" transform="translate(-983.28 -694.55)"/><path class="cls-9" d="M1003.18,731.46a6,6,0,0,0,5.1,2.79V732a6,6,0,0,1-5.1-2.79v2.21h0Z" transform="translate(-983.28 -694.55)"/><path class="cls-9" d="M1003.18,729.24a6,6,0,0,0,5.1,2.79l0-6.75h-5.1v4h0Z" transform="translate(-983.28 -694.55)"/><path class="cls-9" d="M1001.37,725.25a13.13,13.13,0,0,0,1.81,4v-4h5.1l0-14.52h-3a16.92,16.92,0,0,0-5.19,6.12h0a42.11,42.11,0,0,0,.67,6.2C1001,723.82,1001.16,724.55,1001.37,725.25Z" transform="translate(-983.28 -694.55)"/><path class="cls-9" d="M1008.34,708.9a20.54,20.54,0,0,0-3,1.84h3V708.9Z" transform="translate(-983.28 -694.55)"/><path class="cls-9" d="M1000.42,710.73h4.94a20.54,20.54,0,0,1,3-1.84v-0.37l-7.91,0a62.13,62.13,0,0,0-.29,6.89C1000.2,712.66,1000.42,710.73,1000.42,710.73Z" transform="translate(-983.28 -694.55)"/><path class="cls-9" d="M1008.34,708.53v0.37l0.77-.37h-0.76Z" transform="translate(-983.28 -694.55)"/><path class="cls-9" d="M1008.28,732v2.22a6,6,0,0,0,5.11-2.76v-2.22A6,6,0,0,1,1008.28,732Z" transform="translate(-983.28 -694.55)"/><path class="cls-9" d="M1010.23,890.66c-0.36,1.92-.61,2.87-0.82,3.95a9.85,9.85,0,0,0,3.88.67c2.48,0,2.2-.91,2.2-0.91s-0.39-4.22-.74-6.91a19.27,19.27,0,0,1,.73-5.77c-0.08.06-1.14,0.77-4.33,0A65.78,65.78,0,0,1,1010.23,890.66Z" transform="translate(-983.28 -694.55)"/><path class="cls-9" d="M1011.19,707.75a15.78,15.78,0,0,0-2.08.79h2.16A4.55,4.55,0,0,1,1011.19,707.75Z" transform="translate(-983.28 -694.55)"/><path class="cls-9" d="M1009.11,708.53l-0.77.37v1.85h3.61a10.17,10.17,0,0,1-.69-2.22h-2.16Z" transform="translate(-983.28 -694.55)"/><path class="cls-9" d="M1017,809.13c0-3-.08-5.73.12-8,0.47-5.3-3.91-33.32-4.19-37.82,0,0-2.51-10.57-.64-13,0.17-.22.37-0.45,0.58-0.7a9.35,9.35,0,0,1-4.68,1.22l-0.17,63.4h2.56c0-3.08.07-5.13,0.07-5.13Z" transform="translate(-983.28 -694.55)"/><path class="cls-9" d="M1013.38,734.67v-3.19a6,6,0,0,1-5.11,2.76l0,16.6a9.35,9.35,0,0,0,4.68-1.22l0,0c2.21-2.49,6.63-6.21,7-7.71a16.51,16.51,0,0,0,.16-3.06A78,78,0,0,1,1013.38,734.67Z" transform="translate(-983.28 -694.55)"/><path class="cls-9" d="M1008.3,725.27l0,6.75a6,6,0,0,0,5.11-2.76v-4h-5.1Z" transform="translate(-983.28 -694.55)"/><path class="cls-9" d="M1010.1,897.82a26.73,26.73,0,0,0,5.27.09c0.83-.06,2-1.08.12-3.54,0,0,.27.91-2.2,0.91a9.85,9.85,0,0,1-3.88-.67C1009,896.44,1009,897.66,1010.1,897.82Z" transform="translate(-983.28 -694.55)"/><path class="cls-9" d="M1015.77,723.12a42.11,42.11,0,0,0,.7-6.2,18.48,18.48,0,0,1-4.53-6.16h-3.61l0,14.52h5.1v4A16.27,16.27,0,0,0,1015.77,723.12Z" transform="translate(-983.28 -694.55)"/><path class="cls-9" d="M1016.93,814.27l-6.31,0c-0.07,6.3-.15,16.92,0,23.08,0.22,9.16-1.27,11.13-.06,24.74a151.53,151.53,0,0,1,.6,19.6c3.19,0.79,4.25.08,4.33,0h0c1.06-4.73,2.91-11.37,3.58-19,1-11.62-.06-17.44,0-24.86,0-2.21.14-5.66,0.34-9.4-2.72.23-4.72-.62-3.56-5.71A50.16,50.16,0,0,0,1016.93,814.27Z" transform="translate(-983.28 -694.55)"/><path class="cls-9" d="M1016.25,710.77s0.21,1.93.26,4.67a62.13,62.13,0,0,0-.26-6.89h-5a10.17,10.17,0,0,0,.69,2.22h4.3Z" transform="translate(-983.28 -694.55)"/><path class="cls-9" d="M1011.95,710.76a18.48,18.48,0,0,0,4.53,6.16c0-.47,0-0.93,0-1.38v-0.09c-0.06-2.75-.26-4.67-0.26-4.67h-4.3Z" transform="translate(-983.28 -694.55)"/><path class="cls-9" d="M1016.14,723a51.63,51.63,0,0,0,.38-6.14l0,0a42.11,42.11,0,0,1-.7,6.2A2.38,2.38,0,0,0,1016.14,723Z" transform="translate(-983.28 -694.55)"/><path class="cls-9" d="M1016.51,715.54c0,0.45,0,.91,0,1.38l0,0C1016.52,716.42,1016.51,716,1016.51,715.54Z" transform="translate(-983.28 -694.55)"/><path class="cls-9" d="M1010.62,814.25l6.31,0c0.09-1.79.11-3.51,0.11-5.13l-6.35,0S1010.66,811.17,1010.62,814.25Z" transform="translate(-983.28 -694.55)"/><path class="cls-9" d="M1016.52,716.89a51.63,51.63,0,0,1-.38,6.14c1.44-.46,2.38-2.59,2.22-4.79S1016.78,716.74,1016.52,716.89Z" transform="translate(-983.28 -694.55)"/><path class="cls-9" d="M1008.36,699.54c-6.07,0-15.8,4.43-10.13,19.44h0a7.61,7.61,0,0,1,0-.79c0.17-2.16,1.6-1.49,1.86-1.34,0-.47,0-0.92,0-1.35V715.4a62.13,62.13,0,0,1,.29-6.89l7.91,0h0.76a15.78,15.78,0,0,1,2.08-.79,4.55,4.55,0,0,0,.07.79h5a62.13,62.13,0,0,1,.26,6.89v0.09c0,0.43,0,.88,0,1.35,0.27-.15,1.7-0.82,1.85,1.35C1023.11,704.52,1014.43,699.56,1008.36,699.54Z" transform="translate(-983.28 -694.55)"/><path class="cls-9" d="M1015.81,822.73c-1.16,5.09.84,5.94,3.56,5.71,0.26-4.9.61-10.33,0.87-14.17h-3.3A50.16,50.16,0,0,1,1015.81,822.73Z" transform="translate(-983.28 -694.55)"/><path class="cls-9" d="M1019.92,734.9c-0.51-.14-0.82-0.2-0.82-0.2s-3.58,1.4-5.73-.44v0.41a78,78,0,0,0,6.7,4.16C1020.06,736.9,1019.92,734.9,1019.92,734.9Z" transform="translate(-983.28 -694.55)"/><path class="cls-9" d="M1017,809.13c0,1.62,0,3.34-.11,5.13h3.3c0.2-3.07.35-5.13,0.35-5.13H1017Z" transform="translate(-983.28 -694.55)"/><path class="cls-9" d="M1025.5,742.24a39.68,39.68,0,0,1-4.41,5.35A53.39,53.39,0,0,0,1022.8,758C1024.66,752.57,1025.37,743.92,1025.5,742.24Z" transform="translate(-983.28 -694.55)"/><path class="cls-9" d="M1017.16,801.14c-0.2,2.27-.12,5-0.12,8h3.55s-0.15,2.06-.35,5.13h0.34a22.52,22.52,0,0,0,2.36-4.26,5.66,5.66,0,0,1-.22-1.32c-0.28-3.39,1.42-5.56,1.81-7.54s-0.35-8.77-.53-13.49c0-.17,0-0.34,0-0.54-0.34-1.47-.63-2.85-0.84-4.09-1.12-4.72-2.31-8.57-2.46-10.67-0.44-6.22.06-8.32,2.12-14.35a53.39,53.39,0,0,1-1.71-10.42c-0.8.85-1.52,1.6-2,2.16-2.25,2.54-6.38,9.08-6.1,13.57S1017.64,795.84,1017.16,801.14Z" transform="translate(-983.28 -694.55)"/><path class="cls-9" d="M1023.14,783c0.21,1.24.5,2.62,0.84,4.09,0-.08,0-0.17,0-0.26C1023.71,785.54,1023.43,784.26,1023.14,783Z" transform="translate(-983.28 -694.55)"/><path class="cls-9" d="M1024,787.13c0.06,0.29.13,0.59,0.2,0.89-0.06-.39-0.14-0.77-0.21-1.15C1024,787,1024,787,1024,787.13Z" transform="translate(-983.28 -694.55)"/><path class="cls-9" d="M1022.94,810c3-7,2.51-15,1.26-21.92,0,0,0-.06,0-0.07-0.07-.3-0.14-0.61-0.2-0.89,0,0.2,0,.38,0,0.54,0.17,4.72.91,11.51,0.53,13.49s-2.08,4.15-1.81,7.54a5.66,5.66,0,0,0,.22,1.32h0Z" transform="translate(-983.28 -694.55)"/><path class="cls-9" d="M1020.23,814.27c-0.26,3.84-.6,9.27-0.87,14.17,1.85-.16,4.06-0.85,5.82-1,4.34-.45,9.17.43,7.13-8.88-0.9-4.11-2.59-10-4.31-16.11,0.13,2.82.72,3.9,0.83,5.72,0.19,2.83-.48,4.9-3.13,6.59s-0.94-.37-0.56-2.35-0.08-4.62-.56-3.69c-0.39.77-1.22,2.56-1.65,1.31h0a22.52,22.52,0,0,1-2.36,4.26h-0.34Z" transform="translate(-983.28 -694.55)"/><path class="cls-9" d="M1019.91,741.89c-0.34,1.5-4.77,5.22-7,7.71l0,0c-0.21.25-.42,0.48-0.58,0.7-1.87,2.43.64,13,.64,13-0.28-4.5,3.84-11,6.1-13.57,0.5-.56,1.22-1.31,2-2.16,0-3.56,1-6.09,4.43-5.64-1-.66-3.1-1.79-5.45-3.12A16.51,16.51,0,0,1,1019.91,741.89Z" transform="translate(-983.28 -694.55)"/><path class="cls-9" d="M1025.52,742c-3.44-.45-4.47,2.08-4.43,5.64a39.68,39.68,0,0,0,4.41-5.35C1025.51,742.05,1025.52,742,1025.52,742Z" transform="translate(-983.28 -694.55)"/><path class="cls-9" d="M1025.65,742l-0.14,0s0,0.1,0,.29Z" transform="translate(-983.28 -694.55)"/><path class="cls-9" d="M1025.52,742l0.14,0c0.84-1.42,1.23-2.7.67-3.55-1.26-1.94-4.79-3.09-6.4-3.53,0,0,.13,2,0.15,3.93C1022.42,740.17,1024.5,741.3,1025.52,742Z" transform="translate(-983.28 -694.55)"/><path class="cls-9" d="M1024.2,788.09c1,4.33,2.42,9.38,3.81,14.31a39.38,39.38,0,0,1,.35-6.68c1-8.53,1.59-38.39,1.18-44.37s-1.64-9-3.89-9.37l-0.16.26c-0.12,1.68-.84,10.33-2.69,15.77,0.84,3.56,1,22.91,1.17,28.86,0.07,0.38.15,0.77,0.21,1.15C1024.19,788,1024.19,788.07,1024.2,788.09Z" transform="translate(-983.28 -694.55)"/><path class="cls-9" d="M1025.16,812.39c-0.38,2-2.08,4,.56,2.35s3.32-3.76,3.13-6.59c-0.11-1.82-.7-2.9-0.83-5.72v0c-1.4-4.92-2.79-10-3.81-14.31,1.25,7,1.71,15-1.26,21.92,0.43,1.24,1.26-.54,1.65-1.31C1025.08,807.76,1025.54,810.41,1025.16,812.39Z" transform="translate(-983.28 -694.55)"/></g></g></g></g></svg>