<svg id="texts" xmlns="http://www.w3.org/2000/svg" viewBox="0 0 27.81 28.89"><defs><style>.cls-1{fill:#e74c3c;}</style></defs><title>refresh-icon</title><path class="cls-1" d="M1350.9,459.2l-2.45.46a1,1,0,0,1-1.13-.68,10.07,10.07,0,0,0-5.79-6.5,9.74,9.74,0,0,0-10.7,2.21l-0.05.05-3.17-3.17,0.05-.05a14.22,14.22,0,0,1,16.25-2.89,14.56,14.56,0,0,1,7.77,9.31A1,1,0,0,1,1350.9,459.2Z" transform="translate(-1323.91 -447.23)"/><path class="cls-1" d="M1334.2,454.72l-9.1-5.14a0.5,0.5,0,0,0-.74.52l1.44,8.68a0.5,0.5,0,0,0,.7.37l7.66-3.54A0.5,0.5,0,0,0,1334.2,454.72Z" transform="translate(-1323.91 -447.23)"/><path class="cls-1" d="M1348,471.81a14.14,14.14,0,0,1-16.15,3,14.57,14.57,0,0,1-7.88-9.37,1,1,0,0,1,.78-1.27l2.46-.46a1,1,0,0,1,1.14.69,9.87,9.87,0,0,0,16.48,4.29l3.25,3.09Z" transform="translate(-1323.91 -447.23)"/><path class="cls-1" d="M1341.44,468.62l8.47,4.78a0.5,0.5,0,0,0,.74-0.49l-0.86-8.31a0.5,0.5,0,0,0-.71-0.4l-7.61,3.53A0.5,0.5,0,0,0,1341.44,468.62Z" transform="translate(-1323.91 -447.23)"/></svg>